# xmcd
#
# Track frame offsets:
#	150
#	15852
#	37899
#	58509
#	73103
#	93009
#	108847
#	124974
#	144052
#	162442
#	175599
#	199309
#	220234
#	241410
#	261403
#
# Disc length: 3725 seconds
#
# Revision: 0
# Processed by: cddbd v1.5.1PL2 Copyright (c) Steve Scherf et al.
# Submitted via: audiograbber 1.83.01
#
DISCID=c60e8b0f
DTITLE=Brock Zeman - Brock Zeman and the Dirty Hands
DYEAR=2005
DGENRE=Alt Country
TTITLE0=Nothing on the Radio
TTITLE1=Sweet Charlotte
TTITLE2=Down By the River
TTITLE3=Two Steps Back
TTITLE4=Amanda
TTITLE5=My Heaven
TTITLE6=Raise Your Hands
TTITLE7=Danny's Song (The Fiddler's Gone Home)
TTITLE8=Small Town Tongues
TTITLE9=Blood of Christ Blues
TTITLE10=Breanna Harrison
TTITLE11=Bones
TTITLE12=White Freight Liner
TTITLE13=Another Song
TTITLE14=Talking Reality Show Blues
EXTD=
EXTT0=
EXTT1=
EXTT2=
EXTT3=
EXTT4=
EXTT5=
EXTT6=
EXTT7=
EXTT8=
EXTT9=
EXTT10=
EXTT11=
EXTT12=
EXTT13=
EXTT14=
PLAYORDER=
